# xmcd
#
# Track frame offsets:
#	150
#	25085
#	49295
#	68770
#	92543
#	114410
#	134778
#	156458
#	177838
#	195655
#
# Disc length: 2890 seconds
#
# Revision: 1
# Processed by: cddbd v1.5.2PL0 Copyright (c) Steve Scherf et al.
# Submitted via: EZCDAudioConverter 8.0.2.1
#
DISCID=890b480a
DTITLE=Various Artist - Thánh Ca 2. Xin Tri Ân
DYEAR=2000
DGENRE=Miscellaneous
TTITLE0=Ngọc lan - Xin Tri Ân
TTITLE1=Lệ Hằng - Lời vọng tình yêu
TTITLE2=Vũ Khanh - Lạy mẹ Fatima
TTITLE3=Lưu Hồng - Giọt lệ trong lời kinh
TTITLE4=Song Ca - Tình yêu Thiên Chúa
TTITLE5=Elvis Phương - Màu xanh Thiên Chúa
TTITLE6=Lệ Hằng - Tâm tình ca 3
TTITLE7=Vũ Khanh - Viên ngọc quý
TTITLE8=Lưu Hồng - Ave Maria
TTITLE9=Ngọc lan - Diễm tình ca
EXTD=
EXTT0=
EXTT1=
EXTT2=
EXTT3=
EXTT4=
EXTT5=
EXTT6=
EXTT7=
EXTT8=
EXTT9=
PLAYORDER=
